<mxfile host="app.diagrams.net" modified="2021-07-11T15:42:40.288Z" agent="5.0 (X11; Linux x86_64) AppleWebKit/537.36 (KHTML, like Gecko) Chrome/91.0.4472.114 Safari/537.36" etag="kJGpGT9LaM72_0rpyS82" version="14.8.5" type="github">
  <diagram id="N9DlH_oF50KL4tNNNAbi" name="Page-1">
    <mxGraphModel dx="1422" dy="801" grid="1" gridSize="10" guides="1" tooltips="1" connect="1" arrows="1" fold="1" page="1" pageScale="1" pageWidth="850" pageHeight="1100" math="0" shadow="0">
      <root>
        <mxCell id="0" />
        <mxCell id="1" parent="0" />
        <mxCell id="ogViaDH4U97uazVdf2XI-1" value="user" style="shape=table;startSize=30;container=1;collapsible=0;childLayout=tableLayout;fixedRows=1;rowLines=0;fontStyle=1;align=center;" vertex="1" parent="1">
          <mxGeometry x="40" y="40" width="150" height="300" as="geometry" />
        </mxCell>
        <mxCell id="ogViaDH4U97uazVdf2XI-2" value="" style="shape=partialRectangle;html=1;whiteSpace=wrap;collapsible=0;dropTarget=0;pointerEvents=0;fillColor=none;top=0;left=0;bottom=1;right=0;points=[[0,0.5],[1,0.5]];portConstraint=eastwest;" vertex="1" parent="ogViaDH4U97uazVdf2XI-1">
          <mxGeometry y="30" width="150" height="30" as="geometry" />
        </mxCell>
        <mxCell id="ogViaDH4U97uazVdf2XI-3" value="1" style="shape=partialRectangle;html=1;whiteSpace=wrap;connectable=0;fillColor=none;top=0;left=0;bottom=0;right=0;overflow=hidden;" vertex="1" parent="ogViaDH4U97uazVdf2XI-2">
          <mxGeometry width="19" height="30" as="geometry" />
        </mxCell>
        <mxCell id="ogViaDH4U97uazVdf2XI-4" value="_id" style="shape=partialRectangle;html=1;whiteSpace=wrap;connectable=0;fillColor=none;top=0;left=0;bottom=0;right=0;align=left;spacingLeft=6;overflow=hidden;" vertex="1" parent="ogViaDH4U97uazVdf2XI-2">
          <mxGeometry x="19" width="91" height="30" as="geometry" />
        </mxCell>
        <mxCell id="ogViaDH4U97uazVdf2XI-29" value="str" style="shape=partialRectangle;html=1;whiteSpace=wrap;connectable=0;fillColor=none;top=0;left=0;bottom=0;right=0;align=left;spacingLeft=6;overflow=hidden;" vertex="1" parent="ogViaDH4U97uazVdf2XI-2">
          <mxGeometry x="110" width="40" height="30" as="geometry" />
        </mxCell>
        <mxCell id="ogViaDH4U97uazVdf2XI-5" value="" style="shape=partialRectangle;html=1;whiteSpace=wrap;collapsible=0;dropTarget=0;pointerEvents=0;fillColor=none;top=0;left=0;bottom=0;right=0;points=[[0,0.5],[1,0.5]];portConstraint=eastwest;" vertex="1" parent="ogViaDH4U97uazVdf2XI-1">
          <mxGeometry y="60" width="150" height="30" as="geometry" />
        </mxCell>
        <mxCell id="ogViaDH4U97uazVdf2XI-6" value="2" style="shape=partialRectangle;html=1;whiteSpace=wrap;connectable=0;fillColor=none;top=0;left=0;bottom=0;right=0;overflow=hidden;" vertex="1" parent="ogViaDH4U97uazVdf2XI-5">
          <mxGeometry width="19" height="30" as="geometry" />
        </mxCell>
        <mxCell id="ogViaDH4U97uazVdf2XI-7" value="fullname&lt;br&gt;" style="shape=partialRectangle;html=1;whiteSpace=wrap;connectable=0;fillColor=none;top=0;left=0;bottom=0;right=0;align=left;spacingLeft=6;overflow=hidden;" vertex="1" parent="ogViaDH4U97uazVdf2XI-5">
          <mxGeometry x="19" width="91" height="30" as="geometry" />
        </mxCell>
        <mxCell id="ogViaDH4U97uazVdf2XI-30" value="str" style="shape=partialRectangle;html=1;whiteSpace=wrap;connectable=0;fillColor=none;top=0;left=0;bottom=0;right=0;align=left;spacingLeft=6;overflow=hidden;" vertex="1" parent="ogViaDH4U97uazVdf2XI-5">
          <mxGeometry x="110" width="40" height="30" as="geometry" />
        </mxCell>
        <mxCell id="ogViaDH4U97uazVdf2XI-8" value="" style="shape=partialRectangle;html=1;whiteSpace=wrap;collapsible=0;dropTarget=0;pointerEvents=0;fillColor=none;top=0;left=0;bottom=0;right=0;points=[[0,0.5],[1,0.5]];portConstraint=eastwest;" vertex="1" parent="ogViaDH4U97uazVdf2XI-1">
          <mxGeometry y="90" width="150" height="30" as="geometry" />
        </mxCell>
        <mxCell id="ogViaDH4U97uazVdf2XI-9" value="3" style="shape=partialRectangle;html=1;whiteSpace=wrap;connectable=0;fillColor=none;top=0;left=0;bottom=0;right=0;overflow=hidden;" vertex="1" parent="ogViaDH4U97uazVdf2XI-8">
          <mxGeometry width="19" height="30" as="geometry" />
        </mxCell>
        <mxCell id="ogViaDH4U97uazVdf2XI-10" value="username" style="shape=partialRectangle;html=1;whiteSpace=wrap;connectable=0;fillColor=none;top=0;left=0;bottom=0;right=0;align=left;spacingLeft=6;overflow=hidden;" vertex="1" parent="ogViaDH4U97uazVdf2XI-8">
          <mxGeometry x="19" width="91" height="30" as="geometry" />
        </mxCell>
        <mxCell id="ogViaDH4U97uazVdf2XI-31" value="str" style="shape=partialRectangle;html=1;whiteSpace=wrap;connectable=0;fillColor=none;top=0;left=0;bottom=0;right=0;align=left;spacingLeft=6;overflow=hidden;" vertex="1" parent="ogViaDH4U97uazVdf2XI-8">
          <mxGeometry x="110" width="40" height="30" as="geometry" />
        </mxCell>
        <mxCell id="ogViaDH4U97uazVdf2XI-11" style="shape=partialRectangle;html=1;whiteSpace=wrap;collapsible=0;dropTarget=0;pointerEvents=0;fillColor=none;top=0;left=0;bottom=0;right=0;points=[[0,0.5],[1,0.5]];portConstraint=eastwest;" vertex="1" parent="ogViaDH4U97uazVdf2XI-1">
          <mxGeometry y="120" width="150" height="30" as="geometry" />
        </mxCell>
        <mxCell id="ogViaDH4U97uazVdf2XI-12" value="4" style="shape=partialRectangle;html=1;whiteSpace=wrap;connectable=0;fillColor=none;top=0;left=0;bottom=0;right=0;overflow=hidden;" vertex="1" parent="ogViaDH4U97uazVdf2XI-11">
          <mxGeometry width="19" height="30" as="geometry" />
        </mxCell>
        <mxCell id="ogViaDH4U97uazVdf2XI-13" value="email" style="shape=partialRectangle;html=1;whiteSpace=wrap;connectable=0;fillColor=none;top=0;left=0;bottom=0;right=0;align=left;spacingLeft=6;overflow=hidden;" vertex="1" parent="ogViaDH4U97uazVdf2XI-11">
          <mxGeometry x="19" width="91" height="30" as="geometry" />
        </mxCell>
        <mxCell id="ogViaDH4U97uazVdf2XI-32" value="str" style="shape=partialRectangle;html=1;whiteSpace=wrap;connectable=0;fillColor=none;top=0;left=0;bottom=0;right=0;align=left;spacingLeft=6;overflow=hidden;" vertex="1" parent="ogViaDH4U97uazVdf2XI-11">
          <mxGeometry x="110" width="40" height="30" as="geometry" />
        </mxCell>
        <mxCell id="ogViaDH4U97uazVdf2XI-14" style="shape=partialRectangle;html=1;whiteSpace=wrap;collapsible=0;dropTarget=0;pointerEvents=0;fillColor=none;top=0;left=0;bottom=0;right=0;points=[[0,0.5],[1,0.5]];portConstraint=eastwest;" vertex="1" parent="ogViaDH4U97uazVdf2XI-1">
          <mxGeometry y="150" width="150" height="30" as="geometry" />
        </mxCell>
        <mxCell id="ogViaDH4U97uazVdf2XI-15" value="5" style="shape=partialRectangle;html=1;whiteSpace=wrap;connectable=0;fillColor=none;top=0;left=0;bottom=0;right=0;overflow=hidden;" vertex="1" parent="ogViaDH4U97uazVdf2XI-14">
          <mxGeometry width="19" height="30" as="geometry" />
        </mxCell>
        <mxCell id="ogViaDH4U97uazVdf2XI-16" value="phone" style="shape=partialRectangle;html=1;whiteSpace=wrap;connectable=0;fillColor=none;top=0;left=0;bottom=0;right=0;align=left;spacingLeft=6;overflow=hidden;" vertex="1" parent="ogViaDH4U97uazVdf2XI-14">
          <mxGeometry x="19" width="91" height="30" as="geometry" />
        </mxCell>
        <mxCell id="ogViaDH4U97uazVdf2XI-33" value="str" style="shape=partialRectangle;html=1;whiteSpace=wrap;connectable=0;fillColor=none;top=0;left=0;bottom=0;right=0;align=left;spacingLeft=6;overflow=hidden;" vertex="1" parent="ogViaDH4U97uazVdf2XI-14">
          <mxGeometry x="110" width="40" height="30" as="geometry" />
        </mxCell>
        <mxCell id="ogViaDH4U97uazVdf2XI-17" style="shape=partialRectangle;html=1;whiteSpace=wrap;collapsible=0;dropTarget=0;pointerEvents=0;fillColor=none;top=0;left=0;bottom=0;right=0;points=[[0,0.5],[1,0.5]];portConstraint=eastwest;" vertex="1" parent="ogViaDH4U97uazVdf2XI-1">
          <mxGeometry y="180" width="150" height="30" as="geometry" />
        </mxCell>
        <mxCell id="ogViaDH4U97uazVdf2XI-18" value="6" style="shape=partialRectangle;html=1;whiteSpace=wrap;connectable=0;fillColor=none;top=0;left=0;bottom=0;right=0;overflow=hidden;" vertex="1" parent="ogViaDH4U97uazVdf2XI-17">
          <mxGeometry width="19" height="30" as="geometry" />
        </mxCell>
        <mxCell id="ogViaDH4U97uazVdf2XI-19" value="bio" style="shape=partialRectangle;html=1;whiteSpace=wrap;connectable=0;fillColor=none;top=0;left=0;bottom=0;right=0;align=left;spacingLeft=6;overflow=hidden;" vertex="1" parent="ogViaDH4U97uazVdf2XI-17">
          <mxGeometry x="19" width="91" height="30" as="geometry" />
        </mxCell>
        <mxCell id="ogViaDH4U97uazVdf2XI-34" value="str" style="shape=partialRectangle;html=1;whiteSpace=wrap;connectable=0;fillColor=none;top=0;left=0;bottom=0;right=0;align=left;spacingLeft=6;overflow=hidden;" vertex="1" parent="ogViaDH4U97uazVdf2XI-17">
          <mxGeometry x="110" width="40" height="30" as="geometry" />
        </mxCell>
        <mxCell id="ogViaDH4U97uazVdf2XI-20" style="shape=partialRectangle;html=1;whiteSpace=wrap;collapsible=0;dropTarget=0;pointerEvents=0;fillColor=none;top=0;left=0;bottom=0;right=0;points=[[0,0.5],[1,0.5]];portConstraint=eastwest;" vertex="1" parent="ogViaDH4U97uazVdf2XI-1">
          <mxGeometry y="210" width="150" height="30" as="geometry" />
        </mxCell>
        <mxCell id="ogViaDH4U97uazVdf2XI-21" value="7" style="shape=partialRectangle;html=1;whiteSpace=wrap;connectable=0;fillColor=none;top=0;left=0;bottom=0;right=0;overflow=hidden;" vertex="1" parent="ogViaDH4U97uazVdf2XI-20">
          <mxGeometry width="19" height="30" as="geometry" />
        </mxCell>
        <mxCell id="ogViaDH4U97uazVdf2XI-22" value="gender" style="shape=partialRectangle;html=1;whiteSpace=wrap;connectable=0;fillColor=none;top=0;left=0;bottom=0;right=0;align=left;spacingLeft=6;overflow=hidden;" vertex="1" parent="ogViaDH4U97uazVdf2XI-20">
          <mxGeometry x="19" width="91" height="30" as="geometry" />
        </mxCell>
        <mxCell id="ogViaDH4U97uazVdf2XI-35" value="str" style="shape=partialRectangle;html=1;whiteSpace=wrap;connectable=0;fillColor=none;top=0;left=0;bottom=0;right=0;align=left;spacingLeft=6;overflow=hidden;" vertex="1" parent="ogViaDH4U97uazVdf2XI-20">
          <mxGeometry x="110" width="40" height="30" as="geometry" />
        </mxCell>
        <mxCell id="ogViaDH4U97uazVdf2XI-23" style="shape=partialRectangle;html=1;whiteSpace=wrap;collapsible=0;dropTarget=0;pointerEvents=0;fillColor=none;top=0;left=0;bottom=0;right=0;points=[[0,0.5],[1,0.5]];portConstraint=eastwest;" vertex="1" parent="ogViaDH4U97uazVdf2XI-1">
          <mxGeometry y="240" width="150" height="30" as="geometry" />
        </mxCell>
        <mxCell id="ogViaDH4U97uazVdf2XI-24" value="8" style="shape=partialRectangle;html=1;whiteSpace=wrap;connectable=0;fillColor=none;top=0;left=0;bottom=0;right=0;overflow=hidden;" vertex="1" parent="ogViaDH4U97uazVdf2XI-23">
          <mxGeometry width="19" height="30" as="geometry" />
        </mxCell>
        <mxCell id="ogViaDH4U97uazVdf2XI-25" value="password" style="shape=partialRectangle;html=1;whiteSpace=wrap;connectable=0;fillColor=none;top=0;left=0;bottom=0;right=0;align=left;spacingLeft=6;overflow=hidden;" vertex="1" parent="ogViaDH4U97uazVdf2XI-23">
          <mxGeometry x="19" width="91" height="30" as="geometry" />
        </mxCell>
        <mxCell id="ogViaDH4U97uazVdf2XI-36" value="str" style="shape=partialRectangle;html=1;whiteSpace=wrap;connectable=0;fillColor=none;top=0;left=0;bottom=0;right=0;align=left;spacingLeft=6;overflow=hidden;" vertex="1" parent="ogViaDH4U97uazVdf2XI-23">
          <mxGeometry x="110" width="40" height="30" as="geometry" />
        </mxCell>
        <mxCell id="ogViaDH4U97uazVdf2XI-38" value="issue" style="shape=table;startSize=30;container=1;collapsible=0;childLayout=tableLayout;fixedRows=1;rowLines=0;fontStyle=1;align=center;" vertex="1" parent="1">
          <mxGeometry x="360" y="280" width="160" height="270" as="geometry" />
        </mxCell>
        <mxCell id="ogViaDH4U97uazVdf2XI-39" value="" style="shape=partialRectangle;html=1;whiteSpace=wrap;collapsible=0;dropTarget=0;pointerEvents=0;fillColor=none;top=0;left=0;bottom=1;right=0;points=[[0,0.5],[1,0.5]];portConstraint=eastwest;" vertex="1" parent="ogViaDH4U97uazVdf2XI-38">
          <mxGeometry y="30" width="160" height="30" as="geometry" />
        </mxCell>
        <mxCell id="ogViaDH4U97uazVdf2XI-40" value="1" style="shape=partialRectangle;html=1;whiteSpace=wrap;connectable=0;fillColor=none;top=0;left=0;bottom=0;right=0;overflow=hidden;" vertex="1" parent="ogViaDH4U97uazVdf2XI-39">
          <mxGeometry width="20" height="30" as="geometry" />
        </mxCell>
        <mxCell id="ogViaDH4U97uazVdf2XI-41" value="_id" style="shape=partialRectangle;html=1;whiteSpace=wrap;connectable=0;fillColor=none;top=0;left=0;bottom=0;right=0;align=left;spacingLeft=6;overflow=hidden;" vertex="1" parent="ogViaDH4U97uazVdf2XI-39">
          <mxGeometry x="20" width="100" height="30" as="geometry" />
        </mxCell>
        <mxCell id="ogViaDH4U97uazVdf2XI-42" value="str" style="shape=partialRectangle;html=1;whiteSpace=wrap;connectable=0;fillColor=none;top=0;left=0;bottom=0;right=0;align=left;spacingLeft=6;overflow=hidden;" vertex="1" parent="ogViaDH4U97uazVdf2XI-39">
          <mxGeometry x="120" width="40" height="30" as="geometry" />
        </mxCell>
        <mxCell id="ogViaDH4U97uazVdf2XI-43" value="" style="shape=partialRectangle;html=1;whiteSpace=wrap;collapsible=0;dropTarget=0;pointerEvents=0;fillColor=none;top=0;left=0;bottom=0;right=0;points=[[0,0.5],[1,0.5]];portConstraint=eastwest;" vertex="1" parent="ogViaDH4U97uazVdf2XI-38">
          <mxGeometry y="60" width="160" height="30" as="geometry" />
        </mxCell>
        <mxCell id="ogViaDH4U97uazVdf2XI-44" value="2" style="shape=partialRectangle;html=1;whiteSpace=wrap;connectable=0;fillColor=none;top=0;left=0;bottom=0;right=0;overflow=hidden;" vertex="1" parent="ogViaDH4U97uazVdf2XI-43">
          <mxGeometry width="20" height="30" as="geometry" />
        </mxCell>
        <mxCell id="ogViaDH4U97uazVdf2XI-45" value="name" style="shape=partialRectangle;html=1;whiteSpace=wrap;connectable=0;fillColor=none;top=0;left=0;bottom=0;right=0;align=left;spacingLeft=6;overflow=hidden;" vertex="1" parent="ogViaDH4U97uazVdf2XI-43">
          <mxGeometry x="20" width="100" height="30" as="geometry" />
        </mxCell>
        <mxCell id="ogViaDH4U97uazVdf2XI-46" value="str" style="shape=partialRectangle;html=1;whiteSpace=wrap;connectable=0;fillColor=none;top=0;left=0;bottom=0;right=0;align=left;spacingLeft=6;overflow=hidden;" vertex="1" parent="ogViaDH4U97uazVdf2XI-43">
          <mxGeometry x="120" width="40" height="30" as="geometry" />
        </mxCell>
        <mxCell id="ogViaDH4U97uazVdf2XI-47" value="" style="shape=partialRectangle;html=1;whiteSpace=wrap;collapsible=0;dropTarget=0;pointerEvents=0;fillColor=none;top=0;left=0;bottom=0;right=0;points=[[0,0.5],[1,0.5]];portConstraint=eastwest;" vertex="1" parent="ogViaDH4U97uazVdf2XI-38">
          <mxGeometry y="90" width="160" height="30" as="geometry" />
        </mxCell>
        <mxCell id="ogViaDH4U97uazVdf2XI-48" value="3" style="shape=partialRectangle;html=1;whiteSpace=wrap;connectable=0;fillColor=none;top=0;left=0;bottom=0;right=0;overflow=hidden;" vertex="1" parent="ogViaDH4U97uazVdf2XI-47">
          <mxGeometry width="20" height="30" as="geometry" />
        </mxCell>
        <mxCell id="ogViaDH4U97uazVdf2XI-49" value="create_date" style="shape=partialRectangle;html=1;whiteSpace=wrap;connectable=0;fillColor=none;top=0;left=0;bottom=0;right=0;align=left;spacingLeft=6;overflow=hidden;" vertex="1" parent="ogViaDH4U97uazVdf2XI-47">
          <mxGeometry x="20" width="100" height="30" as="geometry" />
        </mxCell>
        <mxCell id="ogViaDH4U97uazVdf2XI-50" value="str" style="shape=partialRectangle;html=1;whiteSpace=wrap;connectable=0;fillColor=none;top=0;left=0;bottom=0;right=0;align=left;spacingLeft=6;overflow=hidden;" vertex="1" parent="ogViaDH4U97uazVdf2XI-47">
          <mxGeometry x="120" width="40" height="30" as="geometry" />
        </mxCell>
        <mxCell id="ogViaDH4U97uazVdf2XI-51" style="shape=partialRectangle;html=1;whiteSpace=wrap;collapsible=0;dropTarget=0;pointerEvents=0;fillColor=none;top=0;left=0;bottom=0;right=0;points=[[0,0.5],[1,0.5]];portConstraint=eastwest;" vertex="1" parent="ogViaDH4U97uazVdf2XI-38">
          <mxGeometry y="120" width="160" height="30" as="geometry" />
        </mxCell>
        <mxCell id="ogViaDH4U97uazVdf2XI-52" value="4" style="shape=partialRectangle;html=1;whiteSpace=wrap;connectable=0;fillColor=none;top=0;left=0;bottom=0;right=0;overflow=hidden;" vertex="1" parent="ogViaDH4U97uazVdf2XI-51">
          <mxGeometry width="20" height="30" as="geometry" />
        </mxCell>
        <mxCell id="ogViaDH4U97uazVdf2XI-53" value="update_date" style="shape=partialRectangle;html=1;whiteSpace=wrap;connectable=0;fillColor=none;top=0;left=0;bottom=0;right=0;align=left;spacingLeft=6;overflow=hidden;" vertex="1" parent="ogViaDH4U97uazVdf2XI-51">
          <mxGeometry x="20" width="100" height="30" as="geometry" />
        </mxCell>
        <mxCell id="ogViaDH4U97uazVdf2XI-54" value="str" style="shape=partialRectangle;html=1;whiteSpace=wrap;connectable=0;fillColor=none;top=0;left=0;bottom=0;right=0;align=left;spacingLeft=6;overflow=hidden;" vertex="1" parent="ogViaDH4U97uazVdf2XI-51">
          <mxGeometry x="120" width="40" height="30" as="geometry" />
        </mxCell>
        <mxCell id="ogViaDH4U97uazVdf2XI-55" style="shape=partialRectangle;html=1;whiteSpace=wrap;collapsible=0;dropTarget=0;pointerEvents=0;fillColor=none;top=0;left=0;bottom=0;right=0;points=[[0,0.5],[1,0.5]];portConstraint=eastwest;" vertex="1" parent="ogViaDH4U97uazVdf2XI-38">
          <mxGeometry y="150" width="160" height="30" as="geometry" />
        </mxCell>
        <mxCell id="ogViaDH4U97uazVdf2XI-56" value="5" style="shape=partialRectangle;html=1;whiteSpace=wrap;connectable=0;fillColor=none;top=0;left=0;bottom=0;right=0;overflow=hidden;" vertex="1" parent="ogViaDH4U97uazVdf2XI-55">
          <mxGeometry width="20" height="30" as="geometry" />
        </mxCell>
        <mxCell id="ogViaDH4U97uazVdf2XI-57" value="color" style="shape=partialRectangle;html=1;whiteSpace=wrap;connectable=0;fillColor=none;top=0;left=0;bottom=0;right=0;align=left;spacingLeft=6;overflow=hidden;" vertex="1" parent="ogViaDH4U97uazVdf2XI-55">
          <mxGeometry x="20" width="100" height="30" as="geometry" />
        </mxCell>
        <mxCell id="ogViaDH4U97uazVdf2XI-58" value="str" style="shape=partialRectangle;html=1;whiteSpace=wrap;connectable=0;fillColor=none;top=0;left=0;bottom=0;right=0;align=left;spacingLeft=6;overflow=hidden;" vertex="1" parent="ogViaDH4U97uazVdf2XI-55">
          <mxGeometry x="120" width="40" height="30" as="geometry" />
        </mxCell>
        <mxCell id="ogViaDH4U97uazVdf2XI-59" style="shape=partialRectangle;html=1;whiteSpace=wrap;collapsible=0;dropTarget=0;pointerEvents=0;fillColor=none;top=0;left=0;bottom=0;right=0;points=[[0,0.5],[1,0.5]];portConstraint=eastwest;" vertex="1" parent="ogViaDH4U97uazVdf2XI-38">
          <mxGeometry y="180" width="160" height="30" as="geometry" />
        </mxCell>
        <mxCell id="ogViaDH4U97uazVdf2XI-60" value="6" style="shape=partialRectangle;html=1;whiteSpace=wrap;connectable=0;fillColor=none;top=0;left=0;bottom=0;right=0;overflow=hidden;" vertex="1" parent="ogViaDH4U97uazVdf2XI-59">
          <mxGeometry width="20" height="30" as="geometry" />
        </mxCell>
        <mxCell id="ogViaDH4U97uazVdf2XI-61" value="status" style="shape=partialRectangle;html=1;whiteSpace=wrap;connectable=0;fillColor=none;top=0;left=0;bottom=0;right=0;align=left;spacingLeft=6;overflow=hidden;" vertex="1" parent="ogViaDH4U97uazVdf2XI-59">
          <mxGeometry x="20" width="100" height="30" as="geometry" />
        </mxCell>
        <mxCell id="ogViaDH4U97uazVdf2XI-62" value="str" style="shape=partialRectangle;html=1;whiteSpace=wrap;connectable=0;fillColor=none;top=0;left=0;bottom=0;right=0;align=left;spacingLeft=6;overflow=hidden;" vertex="1" parent="ogViaDH4U97uazVdf2XI-59">
          <mxGeometry x="120" width="40" height="30" as="geometry" />
        </mxCell>
        <mxCell id="ogViaDH4U97uazVdf2XI-63" style="shape=partialRectangle;html=1;whiteSpace=wrap;collapsible=0;dropTarget=0;pointerEvents=0;fillColor=none;top=0;left=0;bottom=0;right=0;points=[[0,0.5],[1,0.5]];portConstraint=eastwest;" vertex="1" parent="ogViaDH4U97uazVdf2XI-38">
          <mxGeometry y="210" width="160" height="30" as="geometry" />
        </mxCell>
        <mxCell id="ogViaDH4U97uazVdf2XI-64" value="7" style="shape=partialRectangle;html=1;whiteSpace=wrap;connectable=0;fillColor=none;top=0;left=0;bottom=0;right=0;overflow=hidden;" vertex="1" parent="ogViaDH4U97uazVdf2XI-63">
          <mxGeometry width="20" height="30" as="geometry" />
        </mxCell>
        <mxCell id="ogViaDH4U97uazVdf2XI-65" value="user_id" style="shape=partialRectangle;html=1;whiteSpace=wrap;connectable=0;fillColor=none;top=0;left=0;bottom=0;right=0;align=left;spacingLeft=6;overflow=hidden;" vertex="1" parent="ogViaDH4U97uazVdf2XI-63">
          <mxGeometry x="20" width="100" height="30" as="geometry" />
        </mxCell>
        <mxCell id="ogViaDH4U97uazVdf2XI-66" value="str" style="shape=partialRectangle;html=1;whiteSpace=wrap;connectable=0;fillColor=none;top=0;left=0;bottom=0;right=0;align=left;spacingLeft=6;overflow=hidden;" vertex="1" parent="ogViaDH4U97uazVdf2XI-63">
          <mxGeometry x="120" width="40" height="30" as="geometry" />
        </mxCell>
        <mxCell id="ogViaDH4U97uazVdf2XI-75" value="note" style="shape=table;startSize=30;container=1;collapsible=0;childLayout=tableLayout;fixedRows=1;rowLines=0;fontStyle=1;align=center;" vertex="1" parent="1">
          <mxGeometry x="40" y="385" width="170" height="270" as="geometry" />
        </mxCell>
        <mxCell id="ogViaDH4U97uazVdf2XI-76" value="" style="shape=partialRectangle;html=1;whiteSpace=wrap;collapsible=0;dropTarget=0;pointerEvents=0;fillColor=none;top=0;left=0;bottom=1;right=0;points=[[0,0.5],[1,0.5]];portConstraint=eastwest;" vertex="1" parent="ogViaDH4U97uazVdf2XI-75">
          <mxGeometry y="30" width="170" height="30" as="geometry" />
        </mxCell>
        <mxCell id="ogViaDH4U97uazVdf2XI-77" value="1" style="shape=partialRectangle;html=1;whiteSpace=wrap;connectable=0;fillColor=none;top=0;left=0;bottom=0;right=0;overflow=hidden;" vertex="1" parent="ogViaDH4U97uazVdf2XI-76">
          <mxGeometry width="21" height="30" as="geometry" />
        </mxCell>
        <mxCell id="ogViaDH4U97uazVdf2XI-78" value="_id" style="shape=partialRectangle;html=1;whiteSpace=wrap;connectable=0;fillColor=none;top=0;left=0;bottom=0;right=0;align=left;spacingLeft=6;overflow=hidden;" vertex="1" parent="ogViaDH4U97uazVdf2XI-76">
          <mxGeometry x="21" width="99" height="30" as="geometry" />
        </mxCell>
        <mxCell id="ogViaDH4U97uazVdf2XI-79" value="str" style="shape=partialRectangle;html=1;whiteSpace=wrap;connectable=0;fillColor=none;top=0;left=0;bottom=0;right=0;align=left;spacingLeft=6;overflow=hidden;" vertex="1" parent="ogViaDH4U97uazVdf2XI-76">
          <mxGeometry x="120" width="50" height="30" as="geometry" />
        </mxCell>
        <mxCell id="ogViaDH4U97uazVdf2XI-80" value="" style="shape=partialRectangle;html=1;whiteSpace=wrap;collapsible=0;dropTarget=0;pointerEvents=0;fillColor=none;top=0;left=0;bottom=0;right=0;points=[[0,0.5],[1,0.5]];portConstraint=eastwest;" vertex="1" parent="ogViaDH4U97uazVdf2XI-75">
          <mxGeometry y="60" width="170" height="30" as="geometry" />
        </mxCell>
        <mxCell id="ogViaDH4U97uazVdf2XI-81" value="2" style="shape=partialRectangle;html=1;whiteSpace=wrap;connectable=0;fillColor=none;top=0;left=0;bottom=0;right=0;overflow=hidden;" vertex="1" parent="ogViaDH4U97uazVdf2XI-80">
          <mxGeometry width="21" height="30" as="geometry" />
        </mxCell>
        <mxCell id="ogViaDH4U97uazVdf2XI-82" value="title" style="shape=partialRectangle;html=1;whiteSpace=wrap;connectable=0;fillColor=none;top=0;left=0;bottom=0;right=0;align=left;spacingLeft=6;overflow=hidden;" vertex="1" parent="ogViaDH4U97uazVdf2XI-80">
          <mxGeometry x="21" width="99" height="30" as="geometry" />
        </mxCell>
        <mxCell id="ogViaDH4U97uazVdf2XI-83" value="str" style="shape=partialRectangle;html=1;whiteSpace=wrap;connectable=0;fillColor=none;top=0;left=0;bottom=0;right=0;align=left;spacingLeft=6;overflow=hidden;" vertex="1" parent="ogViaDH4U97uazVdf2XI-80">
          <mxGeometry x="120" width="50" height="30" as="geometry" />
        </mxCell>
        <mxCell id="ogViaDH4U97uazVdf2XI-84" value="" style="shape=partialRectangle;html=1;whiteSpace=wrap;collapsible=0;dropTarget=0;pointerEvents=0;fillColor=none;top=0;left=0;bottom=0;right=0;points=[[0,0.5],[1,0.5]];portConstraint=eastwest;" vertex="1" parent="ogViaDH4U97uazVdf2XI-75">
          <mxGeometry y="90" width="170" height="30" as="geometry" />
        </mxCell>
        <mxCell id="ogViaDH4U97uazVdf2XI-85" value="3" style="shape=partialRectangle;html=1;whiteSpace=wrap;connectable=0;fillColor=none;top=0;left=0;bottom=0;right=0;overflow=hidden;" vertex="1" parent="ogViaDH4U97uazVdf2XI-84">
          <mxGeometry width="21" height="30" as="geometry" />
        </mxCell>
        <mxCell id="ogViaDH4U97uazVdf2XI-86" value="detail" style="shape=partialRectangle;html=1;whiteSpace=wrap;connectable=0;fillColor=none;top=0;left=0;bottom=0;right=0;align=left;spacingLeft=6;overflow=hidden;" vertex="1" parent="ogViaDH4U97uazVdf2XI-84">
          <mxGeometry x="21" width="99" height="30" as="geometry" />
        </mxCell>
        <mxCell id="ogViaDH4U97uazVdf2XI-87" value="str" style="shape=partialRectangle;html=1;whiteSpace=wrap;connectable=0;fillColor=none;top=0;left=0;bottom=0;right=0;align=left;spacingLeft=6;overflow=hidden;" vertex="1" parent="ogViaDH4U97uazVdf2XI-84">
          <mxGeometry x="120" width="50" height="30" as="geometry" />
        </mxCell>
        <mxCell id="ogViaDH4U97uazVdf2XI-88" style="shape=partialRectangle;html=1;whiteSpace=wrap;collapsible=0;dropTarget=0;pointerEvents=0;fillColor=none;top=0;left=0;bottom=0;right=0;points=[[0,0.5],[1,0.5]];portConstraint=eastwest;" vertex="1" parent="ogViaDH4U97uazVdf2XI-75">
          <mxGeometry y="120" width="170" height="30" as="geometry" />
        </mxCell>
        <mxCell id="ogViaDH4U97uazVdf2XI-89" value="4" style="shape=partialRectangle;html=1;whiteSpace=wrap;connectable=0;fillColor=none;top=0;left=0;bottom=0;right=0;overflow=hidden;" vertex="1" parent="ogViaDH4U97uazVdf2XI-88">
          <mxGeometry width="21" height="30" as="geometry" />
        </mxCell>
        <mxCell id="ogViaDH4U97uazVdf2XI-90" value="color" style="shape=partialRectangle;html=1;whiteSpace=wrap;connectable=0;fillColor=none;top=0;left=0;bottom=0;right=0;align=left;spacingLeft=6;overflow=hidden;" vertex="1" parent="ogViaDH4U97uazVdf2XI-88">
          <mxGeometry x="21" width="99" height="30" as="geometry" />
        </mxCell>
        <mxCell id="ogViaDH4U97uazVdf2XI-91" value="str" style="shape=partialRectangle;html=1;whiteSpace=wrap;connectable=0;fillColor=none;top=0;left=0;bottom=0;right=0;align=left;spacingLeft=6;overflow=hidden;" vertex="1" parent="ogViaDH4U97uazVdf2XI-88">
          <mxGeometry x="120" width="50" height="30" as="geometry" />
        </mxCell>
        <mxCell id="ogViaDH4U97uazVdf2XI-92" style="shape=partialRectangle;html=1;whiteSpace=wrap;collapsible=0;dropTarget=0;pointerEvents=0;fillColor=none;top=0;left=0;bottom=0;right=0;points=[[0,0.5],[1,0.5]];portConstraint=eastwest;" vertex="1" parent="ogViaDH4U97uazVdf2XI-75">
          <mxGeometry y="150" width="170" height="30" as="geometry" />
        </mxCell>
        <mxCell id="ogViaDH4U97uazVdf2XI-93" value="5" style="shape=partialRectangle;html=1;whiteSpace=wrap;connectable=0;fillColor=none;top=0;left=0;bottom=0;right=0;overflow=hidden;" vertex="1" parent="ogViaDH4U97uazVdf2XI-92">
          <mxGeometry width="21" height="30" as="geometry" />
        </mxCell>
        <mxCell id="ogViaDH4U97uazVdf2XI-94" value="create_date" style="shape=partialRectangle;html=1;whiteSpace=wrap;connectable=0;fillColor=none;top=0;left=0;bottom=0;right=0;align=left;spacingLeft=6;overflow=hidden;" vertex="1" parent="ogViaDH4U97uazVdf2XI-92">
          <mxGeometry x="21" width="99" height="30" as="geometry" />
        </mxCell>
        <mxCell id="ogViaDH4U97uazVdf2XI-95" value="str" style="shape=partialRectangle;html=1;whiteSpace=wrap;connectable=0;fillColor=none;top=0;left=0;bottom=0;right=0;align=left;spacingLeft=6;overflow=hidden;" vertex="1" parent="ogViaDH4U97uazVdf2XI-92">
          <mxGeometry x="120" width="50" height="30" as="geometry" />
        </mxCell>
        <mxCell id="ogViaDH4U97uazVdf2XI-96" style="shape=partialRectangle;html=1;whiteSpace=wrap;collapsible=0;dropTarget=0;pointerEvents=0;fillColor=none;top=0;left=0;bottom=0;right=0;points=[[0,0.5],[1,0.5]];portConstraint=eastwest;" vertex="1" parent="ogViaDH4U97uazVdf2XI-75">
          <mxGeometry y="180" width="170" height="30" as="geometry" />
        </mxCell>
        <mxCell id="ogViaDH4U97uazVdf2XI-97" value="6" style="shape=partialRectangle;html=1;whiteSpace=wrap;connectable=0;fillColor=none;top=0;left=0;bottom=0;right=0;overflow=hidden;" vertex="1" parent="ogViaDH4U97uazVdf2XI-96">
          <mxGeometry width="21" height="30" as="geometry" />
        </mxCell>
        <mxCell id="ogViaDH4U97uazVdf2XI-98" value="update_date" style="shape=partialRectangle;html=1;whiteSpace=wrap;connectable=0;fillColor=none;top=0;left=0;bottom=0;right=0;align=left;spacingLeft=6;overflow=hidden;" vertex="1" parent="ogViaDH4U97uazVdf2XI-96">
          <mxGeometry x="21" width="99" height="30" as="geometry" />
        </mxCell>
        <mxCell id="ogViaDH4U97uazVdf2XI-99" value="str" style="shape=partialRectangle;html=1;whiteSpace=wrap;connectable=0;fillColor=none;top=0;left=0;bottom=0;right=0;align=left;spacingLeft=6;overflow=hidden;" vertex="1" parent="ogViaDH4U97uazVdf2XI-96">
          <mxGeometry x="120" width="50" height="30" as="geometry" />
        </mxCell>
        <mxCell id="ogViaDH4U97uazVdf2XI-100" style="shape=partialRectangle;html=1;whiteSpace=wrap;collapsible=0;dropTarget=0;pointerEvents=0;fillColor=none;top=0;left=0;bottom=0;right=0;points=[[0,0.5],[1,0.5]];portConstraint=eastwest;" vertex="1" parent="ogViaDH4U97uazVdf2XI-75">
          <mxGeometry y="210" width="170" height="30" as="geometry" />
        </mxCell>
        <mxCell id="ogViaDH4U97uazVdf2XI-101" value="7" style="shape=partialRectangle;html=1;whiteSpace=wrap;connectable=0;fillColor=none;top=0;left=0;bottom=0;right=0;overflow=hidden;" vertex="1" parent="ogViaDH4U97uazVdf2XI-100">
          <mxGeometry width="21" height="30" as="geometry" />
        </mxCell>
        <mxCell id="ogViaDH4U97uazVdf2XI-102" value="user_id" style="shape=partialRectangle;html=1;whiteSpace=wrap;connectable=0;fillColor=none;top=0;left=0;bottom=0;right=0;align=left;spacingLeft=6;overflow=hidden;" vertex="1" parent="ogViaDH4U97uazVdf2XI-100">
          <mxGeometry x="21" width="99" height="30" as="geometry" />
        </mxCell>
        <mxCell id="ogViaDH4U97uazVdf2XI-103" value="str" style="shape=partialRectangle;html=1;whiteSpace=wrap;connectable=0;fillColor=none;top=0;left=0;bottom=0;right=0;align=left;spacingLeft=6;overflow=hidden;" vertex="1" parent="ogViaDH4U97uazVdf2XI-100">
          <mxGeometry x="120" width="50" height="30" as="geometry" />
        </mxCell>
        <mxCell id="ogViaDH4U97uazVdf2XI-112" value="task" style="shape=table;startSize=30;container=1;collapsible=0;childLayout=tableLayout;fixedRows=1;rowLines=0;fontStyle=1;align=center;" vertex="1" parent="1">
          <mxGeometry x="650" y="280" width="150" height="270" as="geometry" />
        </mxCell>
        <mxCell id="ogViaDH4U97uazVdf2XI-113" value="" style="shape=partialRectangle;html=1;whiteSpace=wrap;collapsible=0;dropTarget=0;pointerEvents=0;fillColor=none;top=0;left=0;bottom=1;right=0;points=[[0,0.5],[1,0.5]];portConstraint=eastwest;" vertex="1" parent="ogViaDH4U97uazVdf2XI-112">
          <mxGeometry y="30" width="150" height="30" as="geometry" />
        </mxCell>
        <mxCell id="ogViaDH4U97uazVdf2XI-114" value="1" style="shape=partialRectangle;html=1;whiteSpace=wrap;connectable=0;fillColor=none;top=0;left=0;bottom=0;right=0;overflow=hidden;" vertex="1" parent="ogViaDH4U97uazVdf2XI-113">
          <mxGeometry width="19" height="30" as="geometry" />
        </mxCell>
        <mxCell id="ogViaDH4U97uazVdf2XI-115" value="_id" style="shape=partialRectangle;html=1;whiteSpace=wrap;connectable=0;fillColor=none;top=0;left=0;bottom=0;right=0;align=left;spacingLeft=6;overflow=hidden;" vertex="1" parent="ogViaDH4U97uazVdf2XI-113">
          <mxGeometry x="19" width="91" height="30" as="geometry" />
        </mxCell>
        <mxCell id="ogViaDH4U97uazVdf2XI-116" value="str" style="shape=partialRectangle;html=1;whiteSpace=wrap;connectable=0;fillColor=none;top=0;left=0;bottom=0;right=0;align=left;spacingLeft=6;overflow=hidden;" vertex="1" parent="ogViaDH4U97uazVdf2XI-113">
          <mxGeometry x="110" width="40" height="30" as="geometry" />
        </mxCell>
        <mxCell id="ogViaDH4U97uazVdf2XI-117" value="" style="shape=partialRectangle;html=1;whiteSpace=wrap;collapsible=0;dropTarget=0;pointerEvents=0;fillColor=none;top=0;left=0;bottom=0;right=0;points=[[0,0.5],[1,0.5]];portConstraint=eastwest;" vertex="1" parent="ogViaDH4U97uazVdf2XI-112">
          <mxGeometry y="60" width="150" height="30" as="geometry" />
        </mxCell>
        <mxCell id="ogViaDH4U97uazVdf2XI-118" value="2" style="shape=partialRectangle;html=1;whiteSpace=wrap;connectable=0;fillColor=none;top=0;left=0;bottom=0;right=0;overflow=hidden;" vertex="1" parent="ogViaDH4U97uazVdf2XI-117">
          <mxGeometry width="19" height="30" as="geometry" />
        </mxCell>
        <mxCell id="ogViaDH4U97uazVdf2XI-119" value="title" style="shape=partialRectangle;html=1;whiteSpace=wrap;connectable=0;fillColor=none;top=0;left=0;bottom=0;right=0;align=left;spacingLeft=6;overflow=hidden;" vertex="1" parent="ogViaDH4U97uazVdf2XI-117">
          <mxGeometry x="19" width="91" height="30" as="geometry" />
        </mxCell>
        <mxCell id="ogViaDH4U97uazVdf2XI-120" value="str" style="shape=partialRectangle;html=1;whiteSpace=wrap;connectable=0;fillColor=none;top=0;left=0;bottom=0;right=0;align=left;spacingLeft=6;overflow=hidden;" vertex="1" parent="ogViaDH4U97uazVdf2XI-117">
          <mxGeometry x="110" width="40" height="30" as="geometry" />
        </mxCell>
        <mxCell id="ogViaDH4U97uazVdf2XI-121" value="" style="shape=partialRectangle;html=1;whiteSpace=wrap;collapsible=0;dropTarget=0;pointerEvents=0;fillColor=none;top=0;left=0;bottom=0;right=0;points=[[0,0.5],[1,0.5]];portConstraint=eastwest;" vertex="1" parent="ogViaDH4U97uazVdf2XI-112">
          <mxGeometry y="90" width="150" height="30" as="geometry" />
        </mxCell>
        <mxCell id="ogViaDH4U97uazVdf2XI-122" value="3" style="shape=partialRectangle;html=1;whiteSpace=wrap;connectable=0;fillColor=none;top=0;left=0;bottom=0;right=0;overflow=hidden;" vertex="1" parent="ogViaDH4U97uazVdf2XI-121">
          <mxGeometry width="19" height="30" as="geometry" />
        </mxCell>
        <mxCell id="ogViaDH4U97uazVdf2XI-123" value="detail" style="shape=partialRectangle;html=1;whiteSpace=wrap;connectable=0;fillColor=none;top=0;left=0;bottom=0;right=0;align=left;spacingLeft=6;overflow=hidden;" vertex="1" parent="ogViaDH4U97uazVdf2XI-121">
          <mxGeometry x="19" width="91" height="30" as="geometry" />
        </mxCell>
        <mxCell id="ogViaDH4U97uazVdf2XI-124" value="str" style="shape=partialRectangle;html=1;whiteSpace=wrap;connectable=0;fillColor=none;top=0;left=0;bottom=0;right=0;align=left;spacingLeft=6;overflow=hidden;" vertex="1" parent="ogViaDH4U97uazVdf2XI-121">
          <mxGeometry x="110" width="40" height="30" as="geometry" />
        </mxCell>
        <mxCell id="ogViaDH4U97uazVdf2XI-125" style="shape=partialRectangle;html=1;whiteSpace=wrap;collapsible=0;dropTarget=0;pointerEvents=0;fillColor=none;top=0;left=0;bottom=0;right=0;points=[[0,0.5],[1,0.5]];portConstraint=eastwest;" vertex="1" parent="ogViaDH4U97uazVdf2XI-112">
          <mxGeometry y="120" width="150" height="30" as="geometry" />
        </mxCell>
        <mxCell id="ogViaDH4U97uazVdf2XI-126" value="4" style="shape=partialRectangle;html=1;whiteSpace=wrap;connectable=0;fillColor=none;top=0;left=0;bottom=0;right=0;overflow=hidden;" vertex="1" parent="ogViaDH4U97uazVdf2XI-125">
          <mxGeometry width="19" height="30" as="geometry" />
        </mxCell>
        <mxCell id="ogViaDH4U97uazVdf2XI-127" value="color" style="shape=partialRectangle;html=1;whiteSpace=wrap;connectable=0;fillColor=none;top=0;left=0;bottom=0;right=0;align=left;spacingLeft=6;overflow=hidden;" vertex="1" parent="ogViaDH4U97uazVdf2XI-125">
          <mxGeometry x="19" width="91" height="30" as="geometry" />
        </mxCell>
        <mxCell id="ogViaDH4U97uazVdf2XI-128" value="str" style="shape=partialRectangle;html=1;whiteSpace=wrap;connectable=0;fillColor=none;top=0;left=0;bottom=0;right=0;align=left;spacingLeft=6;overflow=hidden;" vertex="1" parent="ogViaDH4U97uazVdf2XI-125">
          <mxGeometry x="110" width="40" height="30" as="geometry" />
        </mxCell>
        <mxCell id="ogViaDH4U97uazVdf2XI-129" style="shape=partialRectangle;html=1;whiteSpace=wrap;collapsible=0;dropTarget=0;pointerEvents=0;fillColor=none;top=0;left=0;bottom=0;right=0;points=[[0,0.5],[1,0.5]];portConstraint=eastwest;" vertex="1" parent="ogViaDH4U97uazVdf2XI-112">
          <mxGeometry y="150" width="150" height="30" as="geometry" />
        </mxCell>
        <mxCell id="ogViaDH4U97uazVdf2XI-130" value="5" style="shape=partialRectangle;html=1;whiteSpace=wrap;connectable=0;fillColor=none;top=0;left=0;bottom=0;right=0;overflow=hidden;" vertex="1" parent="ogViaDH4U97uazVdf2XI-129">
          <mxGeometry width="19" height="30" as="geometry" />
        </mxCell>
        <mxCell id="ogViaDH4U97uazVdf2XI-131" value="create_date" style="shape=partialRectangle;html=1;whiteSpace=wrap;connectable=0;fillColor=none;top=0;left=0;bottom=0;right=0;align=left;spacingLeft=6;overflow=hidden;" vertex="1" parent="ogViaDH4U97uazVdf2XI-129">
          <mxGeometry x="19" width="91" height="30" as="geometry" />
        </mxCell>
        <mxCell id="ogViaDH4U97uazVdf2XI-132" value="str" style="shape=partialRectangle;html=1;whiteSpace=wrap;connectable=0;fillColor=none;top=0;left=0;bottom=0;right=0;align=left;spacingLeft=6;overflow=hidden;" vertex="1" parent="ogViaDH4U97uazVdf2XI-129">
          <mxGeometry x="110" width="40" height="30" as="geometry" />
        </mxCell>
        <mxCell id="ogViaDH4U97uazVdf2XI-133" style="shape=partialRectangle;html=1;whiteSpace=wrap;collapsible=0;dropTarget=0;pointerEvents=0;fillColor=none;top=0;left=0;bottom=0;right=0;points=[[0,0.5],[1,0.5]];portConstraint=eastwest;" vertex="1" parent="ogViaDH4U97uazVdf2XI-112">
          <mxGeometry y="180" width="150" height="30" as="geometry" />
        </mxCell>
        <mxCell id="ogViaDH4U97uazVdf2XI-134" value="6" style="shape=partialRectangle;html=1;whiteSpace=wrap;connectable=0;fillColor=none;top=0;left=0;bottom=0;right=0;overflow=hidden;" vertex="1" parent="ogViaDH4U97uazVdf2XI-133">
          <mxGeometry width="19" height="30" as="geometry" />
        </mxCell>
        <mxCell id="ogViaDH4U97uazVdf2XI-135" value="update_date" style="shape=partialRectangle;html=1;whiteSpace=wrap;connectable=0;fillColor=none;top=0;left=0;bottom=0;right=0;align=left;spacingLeft=6;overflow=hidden;" vertex="1" parent="ogViaDH4U97uazVdf2XI-133">
          <mxGeometry x="19" width="91" height="30" as="geometry" />
        </mxCell>
        <mxCell id="ogViaDH4U97uazVdf2XI-136" value="str" style="shape=partialRectangle;html=1;whiteSpace=wrap;connectable=0;fillColor=none;top=0;left=0;bottom=0;right=0;align=left;spacingLeft=6;overflow=hidden;" vertex="1" parent="ogViaDH4U97uazVdf2XI-133">
          <mxGeometry x="110" width="40" height="30" as="geometry" />
        </mxCell>
        <mxCell id="ogViaDH4U97uazVdf2XI-137" style="shape=partialRectangle;html=1;whiteSpace=wrap;collapsible=0;dropTarget=0;pointerEvents=0;fillColor=none;top=0;left=0;bottom=0;right=0;points=[[0,0.5],[1,0.5]];portConstraint=eastwest;" vertex="1" parent="ogViaDH4U97uazVdf2XI-112">
          <mxGeometry y="210" width="150" height="30" as="geometry" />
        </mxCell>
        <mxCell id="ogViaDH4U97uazVdf2XI-138" value="7" style="shape=partialRectangle;html=1;whiteSpace=wrap;connectable=0;fillColor=none;top=0;left=0;bottom=0;right=0;overflow=hidden;" vertex="1" parent="ogViaDH4U97uazVdf2XI-137">
          <mxGeometry width="19" height="30" as="geometry" />
        </mxCell>
        <mxCell id="ogViaDH4U97uazVdf2XI-139" value="issue_id" style="shape=partialRectangle;html=1;whiteSpace=wrap;connectable=0;fillColor=none;top=0;left=0;bottom=0;right=0;align=left;spacingLeft=6;overflow=hidden;" vertex="1" parent="ogViaDH4U97uazVdf2XI-137">
          <mxGeometry x="19" width="91" height="30" as="geometry" />
        </mxCell>
        <mxCell id="ogViaDH4U97uazVdf2XI-140" value="str" style="shape=partialRectangle;html=1;whiteSpace=wrap;connectable=0;fillColor=none;top=0;left=0;bottom=0;right=0;align=left;spacingLeft=6;overflow=hidden;" vertex="1" parent="ogViaDH4U97uazVdf2XI-137">
          <mxGeometry x="110" width="40" height="30" as="geometry" />
        </mxCell>
        <mxCell id="ogViaDH4U97uazVdf2XI-145" value="label" style="shape=table;startSize=30;container=1;collapsible=0;childLayout=tableLayout;fixedRows=1;rowLines=0;fontStyle=1;align=center;" vertex="1" parent="1">
          <mxGeometry x="510" y="30" width="150" height="180" as="geometry" />
        </mxCell>
        <mxCell id="ogViaDH4U97uazVdf2XI-146" value="" style="shape=partialRectangle;html=1;whiteSpace=wrap;collapsible=0;dropTarget=0;pointerEvents=0;fillColor=none;top=0;left=0;bottom=1;right=0;points=[[0,0.5],[1,0.5]];portConstraint=eastwest;" vertex="1" parent="ogViaDH4U97uazVdf2XI-145">
          <mxGeometry y="30" width="150" height="30" as="geometry" />
        </mxCell>
        <mxCell id="ogViaDH4U97uazVdf2XI-147" value="1" style="shape=partialRectangle;html=1;whiteSpace=wrap;connectable=0;fillColor=none;top=0;left=0;bottom=0;right=0;overflow=hidden;" vertex="1" parent="ogViaDH4U97uazVdf2XI-146">
          <mxGeometry width="19" height="30" as="geometry" />
        </mxCell>
        <mxCell id="ogViaDH4U97uazVdf2XI-148" value="_id" style="shape=partialRectangle;html=1;whiteSpace=wrap;connectable=0;fillColor=none;top=0;left=0;bottom=0;right=0;align=left;spacingLeft=6;overflow=hidden;" vertex="1" parent="ogViaDH4U97uazVdf2XI-146">
          <mxGeometry x="19" width="91" height="30" as="geometry" />
        </mxCell>
        <mxCell id="ogViaDH4U97uazVdf2XI-149" value="str" style="shape=partialRectangle;html=1;whiteSpace=wrap;connectable=0;fillColor=none;top=0;left=0;bottom=0;right=0;align=left;spacingLeft=6;overflow=hidden;" vertex="1" parent="ogViaDH4U97uazVdf2XI-146">
          <mxGeometry x="110" width="40" height="30" as="geometry" />
        </mxCell>
        <mxCell id="ogViaDH4U97uazVdf2XI-150" value="" style="shape=partialRectangle;html=1;whiteSpace=wrap;collapsible=0;dropTarget=0;pointerEvents=0;fillColor=none;top=0;left=0;bottom=0;right=0;points=[[0,0.5],[1,0.5]];portConstraint=eastwest;" vertex="1" parent="ogViaDH4U97uazVdf2XI-145">
          <mxGeometry y="60" width="150" height="30" as="geometry" />
        </mxCell>
        <mxCell id="ogViaDH4U97uazVdf2XI-151" value="2" style="shape=partialRectangle;html=1;whiteSpace=wrap;connectable=0;fillColor=none;top=0;left=0;bottom=0;right=0;overflow=hidden;" vertex="1" parent="ogViaDH4U97uazVdf2XI-150">
          <mxGeometry width="19" height="30" as="geometry" />
        </mxCell>
        <mxCell id="ogViaDH4U97uazVdf2XI-152" value="name" style="shape=partialRectangle;html=1;whiteSpace=wrap;connectable=0;fillColor=none;top=0;left=0;bottom=0;right=0;align=left;spacingLeft=6;overflow=hidden;" vertex="1" parent="ogViaDH4U97uazVdf2XI-150">
          <mxGeometry x="19" width="91" height="30" as="geometry" />
        </mxCell>
        <mxCell id="ogViaDH4U97uazVdf2XI-153" value="str" style="shape=partialRectangle;html=1;whiteSpace=wrap;connectable=0;fillColor=none;top=0;left=0;bottom=0;right=0;align=left;spacingLeft=6;overflow=hidden;" vertex="1" parent="ogViaDH4U97uazVdf2XI-150">
          <mxGeometry x="110" width="40" height="30" as="geometry" />
        </mxCell>
        <mxCell id="ogViaDH4U97uazVdf2XI-154" value="" style="shape=partialRectangle;html=1;whiteSpace=wrap;collapsible=0;dropTarget=0;pointerEvents=0;fillColor=none;top=0;left=0;bottom=0;right=0;points=[[0,0.5],[1,0.5]];portConstraint=eastwest;" vertex="1" parent="ogViaDH4U97uazVdf2XI-145">
          <mxGeometry y="90" width="150" height="30" as="geometry" />
        </mxCell>
        <mxCell id="ogViaDH4U97uazVdf2XI-155" value="3" style="shape=partialRectangle;html=1;whiteSpace=wrap;connectable=0;fillColor=none;top=0;left=0;bottom=0;right=0;overflow=hidden;" vertex="1" parent="ogViaDH4U97uazVdf2XI-154">
          <mxGeometry width="19" height="30" as="geometry" />
        </mxCell>
        <mxCell id="ogViaDH4U97uazVdf2XI-156" value="color" style="shape=partialRectangle;html=1;whiteSpace=wrap;connectable=0;fillColor=none;top=0;left=0;bottom=0;right=0;align=left;spacingLeft=6;overflow=hidden;" vertex="1" parent="ogViaDH4U97uazVdf2XI-154">
          <mxGeometry x="19" width="91" height="30" as="geometry" />
        </mxCell>
        <mxCell id="ogViaDH4U97uazVdf2XI-157" value="str" style="shape=partialRectangle;html=1;whiteSpace=wrap;connectable=0;fillColor=none;top=0;left=0;bottom=0;right=0;align=left;spacingLeft=6;overflow=hidden;" vertex="1" parent="ogViaDH4U97uazVdf2XI-154">
          <mxGeometry x="110" width="40" height="30" as="geometry" />
        </mxCell>
        <mxCell id="ogViaDH4U97uazVdf2XI-158" style="shape=partialRectangle;html=1;whiteSpace=wrap;collapsible=0;dropTarget=0;pointerEvents=0;fillColor=none;top=0;left=0;bottom=0;right=0;points=[[0,0.5],[1,0.5]];portConstraint=eastwest;" vertex="1" parent="ogViaDH4U97uazVdf2XI-145">
          <mxGeometry y="120" width="150" height="30" as="geometry" />
        </mxCell>
        <mxCell id="ogViaDH4U97uazVdf2XI-159" value="4" style="shape=partialRectangle;html=1;whiteSpace=wrap;connectable=0;fillColor=none;top=0;left=0;bottom=0;right=0;overflow=hidden;" vertex="1" parent="ogViaDH4U97uazVdf2XI-158">
          <mxGeometry width="19" height="30" as="geometry" />
        </mxCell>
        <mxCell id="ogViaDH4U97uazVdf2XI-160" value="user_id" style="shape=partialRectangle;html=1;whiteSpace=wrap;connectable=0;fillColor=none;top=0;left=0;bottom=0;right=0;align=left;spacingLeft=6;overflow=hidden;" vertex="1" parent="ogViaDH4U97uazVdf2XI-158">
          <mxGeometry x="19" width="91" height="30" as="geometry" />
        </mxCell>
        <mxCell id="ogViaDH4U97uazVdf2XI-161" value="str" style="shape=partialRectangle;html=1;whiteSpace=wrap;connectable=0;fillColor=none;top=0;left=0;bottom=0;right=0;align=left;spacingLeft=6;overflow=hidden;" vertex="1" parent="ogViaDH4U97uazVdf2XI-158">
          <mxGeometry x="110" width="40" height="30" as="geometry" />
        </mxCell>
        <mxCell id="ogViaDH4U97uazVdf2XI-179" value="" style="edgeStyle=entityRelationEdgeStyle;fontSize=12;html=1;endArrow=ERoneToMany;" edge="1" parent="1" source="ogViaDH4U97uazVdf2XI-2" target="ogViaDH4U97uazVdf2XI-158">
          <mxGeometry width="100" height="100" relative="1" as="geometry">
            <mxPoint x="280" y="350" as="sourcePoint" />
            <mxPoint x="380" y="250" as="targetPoint" />
          </mxGeometry>
        </mxCell>
        <mxCell id="ogViaDH4U97uazVdf2XI-180" value="" style="edgeStyle=entityRelationEdgeStyle;fontSize=12;html=1;endArrow=ERoneToMany;" edge="1" parent="1" source="ogViaDH4U97uazVdf2XI-2" target="ogViaDH4U97uazVdf2XI-100">
          <mxGeometry width="100" height="100" relative="1" as="geometry">
            <mxPoint x="280" y="350" as="sourcePoint" />
            <mxPoint x="380" y="250" as="targetPoint" />
          </mxGeometry>
        </mxCell>
        <mxCell id="ogViaDH4U97uazVdf2XI-181" value="" style="edgeStyle=entityRelationEdgeStyle;fontSize=12;html=1;endArrow=ERoneToMany;" edge="1" parent="1" source="ogViaDH4U97uazVdf2XI-2" target="ogViaDH4U97uazVdf2XI-63">
          <mxGeometry width="100" height="100" relative="1" as="geometry">
            <mxPoint x="640" y="270" as="sourcePoint" />
            <mxPoint x="740" y="170" as="targetPoint" />
          </mxGeometry>
        </mxCell>
        <mxCell id="ogViaDH4U97uazVdf2XI-182" value="" style="edgeStyle=entityRelationEdgeStyle;fontSize=12;html=1;endArrow=ERoneToMany;" edge="1" parent="1" source="ogViaDH4U97uazVdf2XI-39" target="ogViaDH4U97uazVdf2XI-137">
          <mxGeometry width="100" height="100" relative="1" as="geometry">
            <mxPoint x="710" y="320" as="sourcePoint" />
            <mxPoint x="810" y="220" as="targetPoint" />
          </mxGeometry>
        </mxCell>
      </root>
    </mxGraphModel>
  </diagram>
</mxfile>
